<?xml version="1.0" encoding="UTF-8"?>
<svg xmlns="http://www.w3.org/2000/svg" xmlns:xlink="http://www.w3.org/1999/xlink" viewBox="0 0 1000 1000">
  <defs>
    <pattern id="c" x="0" y="0" width="16" height="19" patternTransform="translate(-4878.6 -4396.43) scale(.4)" patternUnits="userSpaceOnUse" viewBox="0 0 16 19">
      <rect x="0" width="16" height="19" style="fill:none;"></rect>
      <polygon points="16 22.18 10.5 19 16 15.82 21.5 19 16 22.18" style="fill:#969a9e;"></polygon>
      <polygon points="8 12.68 2.5 9.5 8 6.32 13.5 9.5 8 12.68" style="fill:#969a9e;"></polygon>
      <polygon points="0 22.18 -5.5 19 0 15.82 5.5 19 0 22.18" style="fill:#969a9e;"></polygon>
      <polygon points="16 3.18 10.5 0 16 -3.18 21.5 0 16 3.18" style="fill:#969a9e;"></polygon>
      <polygon points="0 3.18 -5.5 0 0 -3.18 5.5 0 0 3.18" style="fill:#969a9e;"></polygon>
    </pattern>
  </defs>
  <g id="a">
    <rect x="0" y="0" width="1000" height="1000" style="fill:#fff;"></rect>
  </g>
  <g id="b">
    <polygon points="648.49 464.32 676.3 470.56 696.16 458.36 693.32 447.01 661.26 433.68 648.49 464.32" style="fill:url(#c);"></polygon>
    <polygon points="73.77 638.45 169.6 653.59 262.41 600.12 181.71 574.9 73.77 638.45" style="fill:url(#c);"></polygon>
    <polygon points="63.18 417.68 90.99 423.92 110.85 411.72 108.01 400.37 75.95 387.03 63.18 417.68" style="fill:url(#c);"></polygon>
    <path d="M488.57,889.74c-3.56-6.24-12.99-1.05-10.36,5.14-1.06-.31-2.11-.64-3.14-1.01-2.11-.68-15.58-5.14-20.21-6.67-8.19-2.7-17.3-4.62-24.62-9.3-5.17-3.3-11.41,4.51-6.64,8.61,5.55,4.78,12.53,6.6,19.36,8.88l26.52,8.78c5.53,1.83,12.14,4.68,17.42.66,5-3.8,4.51-10.13,1.68-15.1Z" style="fill:url(#c);"></path>
    <path d="M829.44,549.12l.36-2.74c.32-2.42-2.04-5.12-4.3-5.65-6.49-1.51-14.95-2.08-20.77-5.5-6.08-3.58-10.95-9.65-16.13-14.36-5.35-4.87-12.13,2.34-7.78,7.78,4.89,6.11,11.32,12.51,18.03,16.63,3.3,2.02,7.16,3.25,11.14,4.19-3.09.37-8.38,1.05-8.43.95-2.52-4.25-10.44-2.79-9.91,2.68.6,6.21,4.88,8.99,10.97,8.77,3.82-.13,7.69-.4,11.55-.71l-3.97,11.98c-1.57.54-2.95,1.74-3.67,3.71-.22.61-.46,1.2-.69,1.81-1.35-.79-3.06-1.01-4.64-.66-2.2-4.07-9.83-3.48-10.78,1.5-.42,2.21-.79,4.42-1.14,6.64-1.33.44-2.54,1.25-3.35,2.33-3.99,5.36-5.86,11.42-6.01,18.07-.06,2.75,1.59,4.58,3.73,5.32-1.08.5-2.12.89-3.06,1.12-1.28-.1-2.56-.18-3.84-.26-2.3-.76-4.85-2.24-6.76-2.93l-12.02-4.37c-6.65-2.42-11.8-3.65-18.82-2.31-2.99.57-5.93,1.03-8.87,1.43-1.38-2.17-3.78-3.03-5.99-2.84-1.06-.54-2.39-1.13-2.79-1.37-2.19-1.33-4.39-2.64-6.61-3.93-4.43-2.58-8.91-5.08-13.41-7.54-8.99-4.9-18.04-9.88-27.33-14.16-6.48-2.98-12.11,6.05-5.7,9.75,11.47,6.61,23.45,12.34,34.97,18.87,2.38,1.35,4.73,2.9,7.11,4.43-2.78,3.1-1.44,9.18,4.01,9.46.94.05,1.88.05,2.82.06,10.35,4.27,21.81,4.69,32.86,5.65,9.4.82,19.32,2.4,28.92,2.01.1,0,.2.02.29.02.21,0,.43-.04.64-.06,2.14-.12,4.26-.33,6.35-.68,2.12-.36,3.3-1.56,3.76-3.03.69-.34,1.37-.67,2.02-.95,4.94-2.16,11.53-3.92,15.8-7.29,3.02-2.39,3.22-5.61,3-9.05,2.77-1.69,5.57-3.32,8.49-4.78,3.87-1.93,8.96-3.08,11.51-6.86,2.88-4.28,2.19-11.32,2.59-16.27l1.69-20.98c.25-3.14-2.89-5.89-5.86-5.87Z" style="fill:url(#c);"></path>
    <path d="M769.86,555.51c-.25-.41-.57-.79-.97-1.12-6.63-5.5-18.54-3.23-26.53-2.35-10.28,1.13-20.36,3.3-30.1,6.78-6.81,2.43-4.01,13.24,3.02,10.97.97-.31,1.94-.62,2.92-.92.3.04.59-.01.92-.01h29.21c7.69-.05,16.84,1.29,23.76-2.71,5.25-3.03,2.5-9.91-2.23-10.64Z" style="fill:url(#c);"></path>
    <path d="M602.71,752.46c-68.93,39.8-180.69,39.8-249.62,0-68.93-39.8-68.93-104.32,0-144.12,68.93-39.8,180.69-39.8,249.62,0,68.93,39.8,68.93,104.32,0,144.12Z" style="fill:url(#c);"></path>
    <polygon points="740.42 917.64 857.46 931.85 974.49 862.67 794.91 824.29 740.42 917.64" style="fill:url(#c);"></polygon>
    <path d="M318.86,848.32l-16.96,18.64,6.97,4.74h-7.37c1.18-3.82-.81-8.68-5.99-8.66h-17.08c-.69-.24-1.45-.34-2.29-.32l-1.59.05c-.85-2.04-2.75-3.57-5.77-3.48-6.19.19-12.35.65-18.53.89-12,.47-23.97-.47-35.86-1.94-2.95-3.09-6.04-6.04-9.26-8.87,6.87.87,13.76,1.61,20.64,2.19,4.3.37,6.54-3.4,6.31-6.98l.82.26,21.13-14.79-121.04-37.8-22.28,15.6,59.15,64.59h-3.84l20.76,21.62h101.88c-.86.86-1.47,1.64-1.81,2.77l-11.22-1-16.98,18.66,123.63,10.01,17.9-19.67-81.32-56.51Z" style="fill:url(#c);"></path>
  </g>
  <g id="d">
    <polygon points="667.29 429.04 667.29 450.8 648.45 461.68 648.45 439.92 667.29 429.04" style="fill:#355d75;"></polygon>
    <polygon points="667.29 429.04 648.45 439.92 629.61 429.04 648.45 418.16 667.29 429.04" style="fill:#fff;"></polygon>
    <polygon points="648.45 439.92 648.45 461.68 629.61 450.8 629.61 429.04 648.45 439.92" style="fill:#fff;"></polygon>
    <polygon points="629.61 429.04 648.45 418.16 667.29 429.04 648.45 439.92 629.61 429.04" style="fill:none; stroke:#373a3a; stroke-linecap:round; stroke-linejoin:round; stroke-width:3px;"></polygon>
    <line x1="648.45" y1="439.92" x2="648.45" y2="461.68" style="fill:none; stroke:#373a3a; stroke-linecap:round; stroke-linejoin:round; stroke-width:3px;"></line>
    <polyline points="629.61 429.04 629.61 450.8 648.45 461.68 667.29 450.8 667.29 429.04" style="fill:none; stroke:#373a3a; stroke-linecap:round; stroke-linejoin:round; stroke-width:3px;"></polyline>
    <path d="M593.3,579.01v88.32c-.7,21.54-15.32,43.49-43.78,59.95-58.4,33.7-153.06,33.7-211.46,0-29.2-16.87-43.78-38.95-43.78-61.05v-87.23c0,22.1,14.59,44.17,43.78,61.05,58.4,33.72,153.06,33.72,211.46,0,29.17-16.85,43.78-38.95,43.78-61.05ZM559.14,680.09c0-1.63-.41-3.23-1.29-4.59-1.51-2.36-4.04-3.6-6.81-3.57-2.12,0-4.35.73-6.37,2.21-.07.02-.1.07-.17.1-4.62,3.43-6.2,9.6-3.53,13.76,1.51,2.36,4.04,3.6,6.78,3.6.51,0,1.04-.06,1.58-.15,1.62-.27,3.31-.95,4.79-2.09.07,0,.15-.07.19-.1v-.02c3.09-2.29,4.81-5.81,4.81-9.14ZM522.55,696.55c0-.95-.13-1.89-.41-2.8-1.22-3.86-4.69-6.27-8.58-6.27-1.17,0-2.33.22-3.5.66-5.16,1.94-8.07,7.56-6.54,12.62,1.22,3.87,4.69,6.25,8.61,6.25.22,0,.46,0,.7-.02.92-.09,1.87-.29,2.8-.63,4.23-1.57,6.93-5.64,6.93-9.8ZM483.73,705.23c0-.36-.03-.75-.07-1.12-.61-4.91-4.79-8.56-9.65-8.56-.36,0-.73.03-1.09.07-5.34.66-9.19,5.37-8.58,10.67.29,2.46,1.48,4.57,3.18,6.1,1.73,1.53,3.99,2.44,6.42,2.46.39,0,.78-.03,1.14-.07,4.95-.61,8.65-4.74,8.65-9.55Z" style="fill:#fff;"></path>
    <path d="M549.49,517.99c29.2,16.85,43.81,38.95,43.81,61.02s-14.61,44.2-43.78,61.05c-58.4,33.72-153.06,33.72-211.46,0-29.2-16.87-43.78-38.95-43.78-61.05s14.59-44.17,43.78-61.02c58.4-33.72,153.06-33.72,211.43,0Z" style="fill:#023452;"></path>
    <path d="M557.85,675.5c.88,1.36,1.29,2.97,1.29,4.59,0,3.33-1.73,6.86-4.81,9.14v.02s-.12.1-.19.1c-1.48,1.14-3.16,1.82-4.79,2.09-.54.09-1.07.15-1.58.15-2.75,0-5.28-1.24-6.78-3.6-2.67-4.16-1.09-10.33,3.53-13.76.07-.02.1-.07.17-.1,2.02-1.48,4.25-2.21,6.37-2.21,2.77-.02,5.3,1.22,6.81,3.57Z" style="fill:#fff;"></path>
    <path d="M522.14,693.76c.29.9.41,1.85.41,2.8,0,4.16-2.69,8.23-6.93,9.8-.92.34-1.87.54-2.8.63-.24.03-.49.02-.7.02-3.91,0-7.39-2.38-8.61-6.25-1.53-5.06,1.38-10.68,6.54-12.62,1.17-.44,2.33-.66,3.5-.66,3.89,0,7.36,2.42,8.58,6.27Z" style="fill:#355d75;"></path>
    <path d="M483.65,704.11c.05.37.07.75.07,1.12,0,4.81-3.7,8.94-8.65,9.55-.37.04-.75.07-1.14.07-2.43-.01-4.69-.92-6.42-2.46-1.7-1.53-2.89-3.65-3.18-6.1-.61-5.3,3.24-10.01,8.58-10.67.37-.05.73-.07,1.09-.07,4.86,0,9.05,3.65,9.65,8.56Z" style="fill:#e1e8ed;"></path>
    <path d="M294.27,579.01c0,22.1,14.59,44.17,43.78,61.05,58.4,33.72,153.06,33.72,211.46,0,29.17-16.85,43.78-38.95,43.78-61.05s-14.61-44.17-43.81-61.02c-58.37-33.72-153.04-33.72-211.43,0-29.2,16.85-43.78,38.92-43.78,61.02Z" style="fill:none; stroke:#373a3a; stroke-linecap:round; stroke-linejoin:round; stroke-width:3px;"></path>
    <path d="M464.33,706.3c-.61-5.3,3.24-10.01,8.58-10.67.37-.05.73-.07,1.09-.07,4.86,0,9.05,3.65,9.65,8.56.05.37.07.75.07,1.12,0,4.81-3.7,8.94-8.65,9.55-.37.04-.75.07-1.14.07-2.43-.01-4.69-.92-6.42-2.46-1.7-1.53-2.89-3.65-3.18-6.1Z" style="fill:none; stroke:#373a3a; stroke-linecap:round; stroke-linejoin:round; stroke-width:3px;"></path>
    <path d="M503.52,700.76c-1.53-5.06,1.38-10.68,6.54-12.62,1.17-.44,2.33-.66,3.5-.66,3.89,0,7.36,2.42,8.58,6.27.29.9.41,1.85.41,2.8,0,4.16-2.69,8.23-6.93,9.8-.92.34-1.87.54-2.8.63-.24.03-.49.02-.7.02-3.91,0-7.39-2.38-8.61-6.25Z" style="fill:none; stroke:#373a3a; stroke-linecap:round; stroke-linejoin:round; stroke-width:3px;"></path>
    <path d="M540.98,688c-2.67-4.16-1.09-10.33,3.53-13.76.07-.02.1-.07.17-.1,2.02-1.48,4.25-2.21,6.37-2.21,2.77-.02,5.3,1.22,6.81,3.57.88,1.36,1.29,2.97,1.29,4.59,0,3.33-1.73,6.86-4.81,9.14v.02s-.12.1-.19.1c-1.48,1.14-3.16,1.82-4.79,2.09-.54.09-1.07.15-1.58.15-2.75,0-5.28-1.24-6.78-3.6Z" style="fill:none; stroke:#373a3a; stroke-linecap:round; stroke-linejoin:round; stroke-width:3px;"></path>
    <path d="M294.27,666.24c0,22.1,14.59,44.17,43.78,61.05,58.4,33.7,153.06,33.7,211.46,0,28.47-16.46,43.08-38.41,43.78-59.95" style="fill:none; stroke:#373a3a; stroke-linecap:round; stroke-linejoin:round; stroke-width:3px;"></path>
    <line x1="593.3" y1="667.33" x2="593.3" y2="579.01" style="fill:none; stroke:#373a3a; stroke-linecap:round; stroke-linejoin:round; stroke-width:3px;"></line>
    <line x1="294.27" y1="666.24" x2="294.27" y2="579.01" style="fill:none; stroke:#373a3a; stroke-linecap:round; stroke-linejoin:round; stroke-width:3px;"></line>
    <path d="M593.3,473.05v88.32c-.7,21.54-15.32,43.49-43.78,59.95-58.4,33.7-153.06,33.7-211.46,0-29.2-16.87-43.78-38.95-43.78-61.05v-87.23c0,22.1,14.59,44.17,43.78,61.05,58.4,33.72,153.06,33.72,211.46,0,29.17-16.85,43.78-38.95,43.78-61.05ZM559.14,574.14c0-1.63-.41-3.23-1.29-4.59-1.51-2.36-4.04-3.6-6.81-3.57-2.12,0-4.35.73-6.37,2.21-.07.02-.1.07-.17.1-4.62,3.43-6.2,9.6-3.53,13.76,1.51,2.36,4.04,3.6,6.78,3.6.51,0,1.04-.06,1.58-.15,1.62-.27,3.31-.95,4.79-2.09.07,0,.15-.07.19-.1v-.02c3.09-2.29,4.81-5.81,4.81-9.14ZM522.55,590.6c0-.95-.13-1.89-.41-2.8-1.22-3.86-4.69-6.27-8.58-6.27-1.17,0-2.33.22-3.5.66-5.16,1.94-8.07,7.56-6.54,12.62,1.22,3.87,4.69,6.25,8.61,6.25.22,0,.46,0,.7-.02.92-.09,1.87-.29,2.8-.63,4.23-1.57,6.93-5.64,6.93-9.8ZM483.73,599.28c0-.36-.03-.75-.07-1.12-.61-4.91-4.79-8.56-9.65-8.56-.36,0-.73.03-1.09.07-5.34.66-9.19,5.37-8.58,10.67.29,2.46,1.48,4.57,3.18,6.1,1.73,1.53,3.99,2.44,6.42,2.46.39,0,.78-.03,1.14-.07,4.95-.61,8.65-4.74,8.65-9.55Z" style="fill:#dae0e5;"></path>
    <path d="M549.49,412.03c29.2,16.85,43.81,38.95,43.81,61.02s-14.61,44.2-43.78,61.05c-58.4,33.72-153.06,33.72-211.46,0-29.2-16.87-43.78-38.95-43.78-61.05s14.59-44.17,43.78-61.02c58.4-33.72,153.06-33.72,211.43,0Z" style="fill:#023452;"></path>
    <path d="M557.85,569.54c.88,1.36,1.29,2.97,1.29,4.59,0,3.33-1.73,6.86-4.81,9.14v.02s-.12.1-.19.1c-1.48,1.14-3.16,1.82-4.79,2.09-.54.09-1.07.15-1.58.15-2.75,0-5.28-1.24-6.78-3.6-2.67-4.16-1.09-10.33,3.53-13.76.07-.02.1-.07.17-.1,2.02-1.48,4.25-2.21,6.37-2.21,2.77-.02,5.3,1.22,6.81,3.57Z" style="fill:#355d75;"></path>
    <path d="M522.14,587.8c.29.9.41,1.85.41,2.8,0,4.16-2.69,8.23-6.93,9.8-.92.34-1.87.54-2.8.63-.24.02-.49.02-.7.02-3.91,0-7.39-2.38-8.61-6.25-1.53-5.06,1.38-10.68,6.54-12.62,1.17-.44,2.33-.66,3.5-.66,3.89,0,7.36,2.42,8.58,6.27Z" style="fill:#fff;"></path>
    <path d="M483.65,598.16c.05.37.07.75.07,1.12,0,4.81-3.7,8.94-8.65,9.55-.37.04-.75.07-1.14.07-2.43-.01-4.69-.92-6.42-2.46-1.7-1.53-2.89-3.65-3.18-6.1-.61-5.3,3.24-10.01,8.58-10.67.37-.05.73-.07,1.09-.07,4.86,0,9.05,3.65,9.65,8.56Z" style="fill:#355d75;"></path>
    <path d="M294.27,473.05c0,22.1,14.59,44.17,43.78,61.05,58.4,33.72,153.06,33.72,211.46,0,29.17-16.85,43.78-38.95,43.78-61.05s-14.61-44.17-43.81-61.02c-58.37-33.72-153.04-33.72-211.43,0-29.2,16.85-43.78,38.92-43.78,61.02Z" style="fill:none; stroke:#373a3a; stroke-linecap:round; stroke-linejoin:round; stroke-width:3px;"></path>
    <path d="M464.33,600.35c-.61-5.3,3.24-10.01,8.58-10.67.37-.05.73-.07,1.09-.07,4.86,0,9.05,3.65,9.65,8.56.05.37.07.75.07,1.12,0,4.81-3.7,8.94-8.65,9.55-.37.04-.75.07-1.14.07-2.43-.01-4.69-.92-6.42-2.46-1.7-1.53-2.89-3.65-3.18-6.1Z" style="fill:none; stroke:#373a3a; stroke-linecap:round; stroke-linejoin:round; stroke-width:3px;"></path>
    <path d="M503.52,594.8c-1.53-5.06,1.38-10.68,6.54-12.62,1.17-.44,2.33-.66,3.5-.66,3.89,0,7.36,2.42,8.58,6.27.29.9.41,1.85.41,2.8,0,4.16-2.69,8.23-6.93,9.8-.92.34-1.87.54-2.8.63-.24.02-.49.02-.7.02-3.91,0-7.39-2.38-8.61-6.25Z" style="fill:none; stroke:#373a3a; stroke-linecap:round; stroke-linejoin:round; stroke-width:3px;"></path>
    <path d="M540.98,582.04c-2.67-4.16-1.09-10.33,3.53-13.76.07-.02.1-.07.17-.1,2.02-1.48,4.25-2.21,6.37-2.21,2.77-.02,5.3,1.22,6.81,3.57.88,1.36,1.29,2.97,1.29,4.59,0,3.33-1.73,6.86-4.81,9.14v.02s-.12.1-.19.1c-1.48,1.14-3.16,1.82-4.79,2.09-.54.09-1.07.15-1.58.15-2.75,0-5.28-1.24-6.78-3.6Z" style="fill:none; stroke:#373a3a; stroke-linecap:round; stroke-linejoin:round; stroke-width:3px;"></path>
    <path d="M294.27,560.28c0,22.1,14.59,44.17,43.78,61.05,58.4,33.7,153.06,33.7,211.46,0,28.47-16.46,43.08-38.41,43.78-59.95" style="fill:none; stroke:#373a3a; stroke-linecap:round; stroke-linejoin:round; stroke-width:3px;"></path>
    <line x1="593.3" y1="561.38" x2="593.3" y2="473.05" style="fill:none; stroke:#373a3a; stroke-linecap:round; stroke-linejoin:round; stroke-width:3px;"></line>
    <line x1="294.27" y1="560.28" x2="294.27" y2="473.05" style="fill:none; stroke:#373a3a; stroke-linecap:round; stroke-linejoin:round; stroke-width:3px;"></line>
    <path d="M593.3,367.1v88.32c-.7,21.54-15.32,43.49-43.78,59.95-58.4,33.7-153.06,33.7-211.46,0-29.2-16.87-43.78-38.95-43.78-61.05v-87.23c0,22.1,14.59,44.17,43.78,61.05,58.4,33.72,153.06,33.72,211.46,0,29.17-16.85,43.78-38.95,43.78-61.05ZM559.14,468.18c0-1.63-.41-3.23-1.29-4.59-1.51-2.36-4.04-3.6-6.81-3.57-2.12,0-4.35.73-6.37,2.21-.07.02-.1.07-.17.1-4.62,3.43-6.2,9.6-3.53,13.76,1.51,2.36,4.04,3.6,6.78,3.6.51,0,1.04-.06,1.58-.15,1.62-.27,3.31-.95,4.79-2.09.07,0,.15-.07.19-.1v-.02c3.09-2.29,4.81-5.81,4.81-9.14ZM522.55,484.64c0-.95-.13-1.89-.41-2.8-1.22-3.86-4.69-6.27-8.58-6.27-1.17,0-2.33.22-3.5.66-5.16,1.94-8.07,7.56-6.54,12.62,1.22,3.87,4.69,6.25,8.61,6.25.22,0,.46,0,.7-.02.92-.09,1.87-.29,2.8-.63,4.23-1.57,6.93-5.64,6.93-9.8ZM483.73,493.32c0-.36-.03-.75-.07-1.12-.61-4.91-4.79-8.56-9.65-8.56-.36,0-.73.03-1.09.07-5.34.66-9.19,5.37-8.58,10.67.29,2.46,1.48,4.57,3.18,6.1,1.73,1.53,3.99,2.44,6.42,2.46.39,0,.78-.03,1.14-.07,4.95-.61,8.65-4.74,8.65-9.55Z" style="fill:#fff;"></path>
    <path d="M549.49,306.08c29.2,16.85,43.81,38.95,43.81,61.02s-14.61,44.2-43.78,61.05c-58.4,33.72-153.06,33.72-211.46,0-29.2-16.87-43.78-38.95-43.78-61.05s14.59-44.17,43.78-61.02c58.4-33.72,153.06-33.72,211.43,0Z" style="fill:#e1e8ed;"></path>
    <path d="M557.85,463.59c.88,1.36,1.29,2.97,1.29,4.59,0,3.33-1.73,6.86-4.81,9.14v.02s-.12.1-.19.1c-1.48,1.14-3.16,1.82-4.79,2.09-.54.09-1.07.15-1.58.15-2.75,0-5.28-1.24-6.78-3.6-2.67-4.16-1.09-10.33,3.53-13.76.07-.02.1-.07.17-.1,2.02-1.48,4.25-2.21,6.37-2.21,2.77-.02,5.3,1.22,6.81,3.57Z" style="fill:#e1e8ed;"></path>
    <path d="M522.14,481.85c.29.9.41,1.85.41,2.8,0,4.16-2.69,8.23-6.93,9.8-.92.34-1.87.54-2.8.63-.24.02-.49.02-.7.02-3.91,0-7.39-2.38-8.61-6.25-1.53-5.06,1.38-10.68,6.54-12.62,1.17-.44,2.33-.66,3.5-.66,3.89,0,7.36,2.42,8.58,6.27Z" style="fill:#355d75;"></path>
    <path d="M483.65,492.2c.05.37.07.75.07,1.12,0,4.81-3.7,8.94-8.65,9.55-.37.04-.75.07-1.14.07-2.43-.01-4.69-.92-6.42-2.46-1.7-1.53-2.89-3.65-3.18-6.1-.61-5.3,3.24-10.01,8.58-10.67.37-.05.73-.07,1.09-.07,4.86,0,9.05,3.65,9.65,8.56Z" style="fill:#fff;"></path>
    <path d="M294.27,367.1c0,22.1,14.59,44.17,43.78,61.05,58.4,33.72,153.06,33.72,211.46,0,29.17-16.85,43.78-38.95,43.78-61.05s-14.61-44.17-43.81-61.02c-58.37-33.72-153.04-33.72-211.43,0-29.2,16.85-43.78,38.92-43.78,61.02Z" style="fill:none; stroke:#373a3a; stroke-linecap:round; stroke-linejoin:round; stroke-width:3px;"></path>
    <path d="M464.33,494.39c-.61-5.3,3.24-10.01,8.58-10.67.37-.05.73-.07,1.09-.07,4.86,0,9.05,3.65,9.65,8.56.05.37.07.75.07,1.12,0,4.81-3.7,8.94-8.65,9.55-.37.04-.75.07-1.14.07-2.43-.01-4.69-.92-6.42-2.46-1.7-1.53-2.89-3.65-3.18-6.1Z" style="fill:none; stroke:#373a3a; stroke-linecap:round; stroke-linejoin:round; stroke-width:3px;"></path>
    <path d="M503.52,488.85c-1.53-5.06,1.38-10.68,6.54-12.62,1.17-.44,2.33-.66,3.5-.66,3.89,0,7.36,2.42,8.58,6.27.29.9.41,1.85.41,2.8,0,4.16-2.69,8.23-6.93,9.8-.92.34-1.87.54-2.8.63-.24.02-.49.02-.7.02-3.91,0-7.39-2.38-8.61-6.25Z" style="fill:none; stroke:#373a3a; stroke-linecap:round; stroke-linejoin:round; stroke-width:3px;"></path>
    <path d="M540.98,476.09c-2.67-4.16-1.09-10.33,3.53-13.76.07-.02.1-.07.17-.1,2.02-1.48,4.25-2.21,6.37-2.21,2.77-.02,5.3,1.22,6.81,3.57.88,1.36,1.29,2.97,1.29,4.59,0,3.33-1.73,6.86-4.81,9.14v.02s-.12.1-.19.1c-1.48,1.14-3.16,1.82-4.79,2.09-.54.09-1.07.15-1.58.15-2.75,0-5.28-1.24-6.78-3.6Z" style="fill:none; stroke:#373a3a; stroke-linecap:round; stroke-linejoin:round; stroke-width:3px;"></path>
    <path d="M294.27,454.33c0,22.1,14.59,44.17,43.78,61.05,58.4,33.7,153.06,33.7,211.46,0,28.47-16.46,43.08-38.41,43.78-59.95" style="fill:none; stroke:#373a3a; stroke-linecap:round; stroke-linejoin:round; stroke-width:3px;"></path>
    <line x1="593.3" y1="455.42" x2="593.3" y2="367.1" style="fill:none; stroke:#373a3a; stroke-linecap:round; stroke-linejoin:round; stroke-width:3px;"></line>
    <line x1="294.27" y1="454.33" x2="294.27" y2="367.1" style="fill:none; stroke:#373a3a; stroke-linecap:round; stroke-linejoin:round; stroke-width:3px;"></line>
    <polygon points="628.5 252.51 606.65 314.84 607.39 282.85 560.49 254.31 561.27 219.86 628.5 252.51" style="fill:#023452;"></polygon>
    <polygon points="607.39 282.85 605.28 375.08 547.11 339.7 549.23 247.46 607.39 282.85" style="fill:#f47d20;"></polygon>
    <polygon points="547.11 339.7 584.17 362.24 546.98 449.58 508.13 282.38 511.21 281.67 547.93 304.02 547.11 339.7" style="fill:#023452;"></polygon>
    <path d="M562.32,174.27l-1.83,80.04-11.26-6.85-.32,14.03-20.96-38.06-21.71,14.81-40.17-82.18-19.52,9.15c-1.86-6.49-4.24-12.95-7.08-19.28l1.04-45.79,121.81,74.11ZM526.22,189.26c.18-7.82-4.37-17.07-10.2-20.61-5.81-3.54-10.67-.02-10.85,7.81-.18,7.87,4.39,17.11,10.2,20.65,5.81,3.53,10.67.02,10.85-7.85Z" style="fill:#dae0e5;"></path>
    <path d="M548.91,261.48l-.98,42.53-36.72-22.35-3.07.71-8.97-38.66-52.26-23.15c2.56-6.31,4.06-13.89,4.25-22.62.24-10.5-1.41-21.64-4.6-32.73l19.52-9.15,40.17,82.18,21.71-14.81,20.96,38.06Z" style="fill:#e1e8ed;"></path>
    <path d="M508.13,282.38l38.84,167.2-234.17-118.04-43.09-167.05,120.07,63.54c13.09,5.78,22.03,3.39,23.04-6.16.85-7.47,6.55-10.58,15.27-8.78,2.39.5,5.01,1.36,7.81,2.6l63.26,28.02,8.97,38.66Z" style="fill:#fff;"></path>
    <path d="M516.02,168.65c5.83,3.54,10.38,12.79,10.2,20.61-.18,7.87-5.04,11.38-10.85,7.85-5.81-3.54-10.38-12.79-10.2-20.65.18-7.82,5.04-11.35,10.85-7.81Z" style="fill:#fff;"></path>
    <path d="M446.55,165.22c3.19,11.09,4.84,22.23,4.6,32.73-.2,8.73-1.69,16.31-4.25,22.62l-11-4.87c-2.8-1.24-5.42-2.1-7.81-2.6.05-.85.08-1.69.11-2.57.58-19.92-5.92-42.14-16.64-62.08-11.06-20.55-26.77-38.69-44.33-49.39-17.31-10.52-33.17-11.83-44.79-5.45l-.02-.02,22.95-12.57c11.65-6.37,27.49-5.05,44.8,5.48,17.57,10.7,33.29,28.84,44.33,49.39,1.77,3.3,3.43,6.66,4.96,10.06,2.84,6.32,5.22,12.79,7.08,19.28Z" style="fill:#023452;"></path>
    <path d="M411.55,148.44c10.73,19.94,17.22,42.16,16.64,62.08-.03.88-.06,1.72-.11,2.57-8.72-1.8-14.42,1.3-15.27,8.78-1.01,9.55-9.96,11.94-23.04,6.16l-30.63-16.87-43.64-22.77c-8.29-17.76-13.06-36.78-12.66-54.11.48-20.25,7.91-34.33,19.58-40.67,11.62-6.39,27.48-5.07,44.79,5.45,17.57,10.7,33.27,28.84,44.33,49.39ZM389.28,187.89l-37.81-53.23-1.38,59.68,39.19-6.45Z" style="fill:#fff;"></path>
    <polygon points="351.46 134.65 389.28 187.89 350.09 194.33 351.46 134.65" style="fill:#e1e8ed;"></polygon>
    <polyline points="561.27 219.86 628.5 252.51 606.65 314.84" style="fill:none; stroke:#373a3a; stroke-linecap:round; stroke-linejoin:round; stroke-width:3px;"></polyline>
    <path d="M584.17,362.24l-37.19,87.34-234.17-118.04-43.09-167.05,120.07,63.54c13.09,5.78,22.03,3.39,23.04-6.16.85-7.47,6.55-10.59,15.27-8.78,2.39.5,5.01,1.36,7.81,2.6l63.26,28.02,47.81,205.86" style="fill:none; stroke:#373a3a; stroke-linecap:round; stroke-linejoin:round; stroke-width:3px;"></path>
    <path d="M322.41,93.59l22.95-12.57c11.65-6.37,27.49-5.05,44.8,5.48,17.57,10.7,33.29,28.84,44.33,49.39,1.77,3.3,3.43,6.66,4.96,10.06,2.84,6.33,5.22,12.79,7.08,19.28,3.19,11.09,4.84,22.23,4.6,32.73-.2,8.73-1.69,16.31-4.25,22.62" style="fill:none; stroke:#373a3a; stroke-linecap:round; stroke-linejoin:round; stroke-width:3px;"></path>
    <path d="M428.09,213.09c.05-.85.08-1.69.11-2.57.58-19.92-5.92-42.14-16.64-62.08-11.06-20.55-26.77-38.69-44.33-49.39-17.31-10.52-33.15-11.81-44.79-5.45-11.65,6.37-19.1,20.43-19.58,40.67-.39,17.33,4.37,36.35,12.66,54.11" style="fill:none; stroke:#373a3a; stroke-linecap:round; stroke-linejoin:round; stroke-width:3px;"></path>
    <polygon points="351.46 134.65 350.09 194.33 389.28 187.89 351.46 134.65" style="fill:none; stroke:#373a3a; stroke-linecap:round; stroke-linejoin:round; stroke-width:3px;"></polygon>
    <line x1="547.93" y1="304.02" x2="511.21" y2="281.67" style="fill:none; stroke:#373a3a; stroke-linecap:round; stroke-linejoin:round; stroke-width:3px;"></line>
    <polyline points="446.55 165.22 466.07 156.07 506.24 238.24 527.96 223.43 548.91 261.48" style="fill:none; stroke:#373a3a; stroke-linecap:round; stroke-linejoin:round; stroke-width:3px;"></polyline>
    <polyline points="560.49 254.31 562.32 174.27 440.51 100.16 439.47 145.94" style="fill:none; stroke:#373a3a; stroke-linecap:round; stroke-linejoin:round; stroke-width:3px;"></polyline>
    <path d="M526.22,189.26c.18-7.82-4.37-17.07-10.2-20.61-5.81-3.54-10.67-.02-10.85,7.81-.18,7.87,4.39,17.11,10.2,20.65,5.81,3.53,10.67.02,10.85-7.85Z" style="fill:none; stroke:#373a3a; stroke-linecap:round; stroke-linejoin:round; stroke-width:3px;"></path>
    <polygon points="606.65 314.85 605.28 375.08 547.11 339.7 549.23 247.46 607.39 282.85 606.65 314.85" style="fill:none; stroke:#373a3a; stroke-linecap:round; stroke-linejoin:round; stroke-width:3px;"></polygon>
    <line x1="564.92" y1="278.07" x2="590.75" y2="293.77" style="fill:none; stroke:#373a3a; stroke-linecap:round; stroke-linejoin:round; stroke-width:3px;"></line>
    <line x1="564.53" y1="294.82" x2="590.36" y2="310.54" style="fill:none; stroke:#373a3a; stroke-linecap:round; stroke-linejoin:round; stroke-width:3px;"></line>
    <line x1="564.15" y1="311.58" x2="589.98" y2="327.31" style="fill:none; stroke:#373a3a; stroke-linecap:round; stroke-linejoin:round; stroke-width:3px;"></line>
    <line x1="563.76" y1="328.35" x2="589.59" y2="344.06" style="fill:none; stroke:#373a3a; stroke-linecap:round; stroke-linejoin:round; stroke-width:3px;"></line>
    <path d="M660.04,233.1c-2.49-5.21-6.25-9.37-11.06-11.74-1.36-.66-2.76-1.16-4.18-1.49l16.46,3.42c1.59.32,3.16.86,4.68,1.6,13.03,6.39,18.36,25.98,11.91,43.77-5.7,15.69-18.68,24.75-30.59,22.26l-16.97-3.53c11.92,2.49,24.89-6.57,30.59-22.26,4.07-11.21,3.45-23.15-.83-32.03Z" style="fill:#ccd6dc;"></path>
    <path d="M660.04,233.1c4.28,8.88,4.9,20.82.83,32.03-5.7,15.69-18.67,24.75-30.59,22.26-1.59-.33-3.15-.86-4.68-1.61-13.02-6.37-18.35-25.96-11.9-43.76,3.52-9.7,9.82-16.85,16.93-20.33l6.65,31.89,22.75-20.48Z" style="fill:#fff;"></path>
    <path d="M660.04,233.1l-22.75,20.48-6.65-31.89c4.4-2.15,9.11-2.88,13.66-1.93l.5.11c1.41.33,2.82.83,4.18,1.49,4.81,2.37,8.58,6.53,11.06,11.74Z" style="fill:#355d75;"></path>
    <path d="M644.8,219.87c1.41.33,2.82.83,4.18,1.49,4.81,2.37,8.57,6.54,11.06,11.74,4.27,8.89,4.9,20.82.83,32.03-5.7,15.69-18.67,24.75-30.59,22.26-1.59-.33-3.15-.86-4.68-1.61-13.02-6.37-18.35-25.96-11.9-43.76,3.52-9.7,9.82-16.85,16.93-20.33,4.4-2.15,9.11-2.88,13.66-1.93" style="fill:none; stroke:#373a3a; stroke-linecap:round; stroke-linejoin:round; stroke-width:3px;"></path>
    <polyline points="660.05 233.09 637.29 253.58 630.64 221.69" style="fill:none; stroke:#373a3a; stroke-linecap:round; stroke-linejoin:round; stroke-width:3px;"></polyline>
    <path d="M644.3,219.76l16.96,3.53c1.59.32,3.16.86,4.68,1.6,13.03,6.39,18.36,25.98,11.91,43.77-5.7,15.69-18.68,24.75-30.59,22.26l-16.97-3.53" style="fill:none; stroke:#373a3a; stroke-linecap:round; stroke-linejoin:round; stroke-width:3px;"></path>
    <polygon points="815.34 557.28 815.34 580.8 798.38 584.44 788.96 593.86 788.96 583.66 785.95 573.35 798.38 560.92 815.34 557.28" style="fill:#355d75;"></polygon>
    <path d="M815.34,542.41v14.87l-16.95,3.64-12.44,12.44,3.01,10.3-22.28,7.43-13.94-6.66h-24.87l-13.94,6.66-22.28-7.43,3.01-10.3-12.44-12.44-16.95-3.64v-14.87l16.95-3.64,12.45-12.44-3.03-10.29,22.3-7.43,13.93,6.65h24.87l13.94-6.65,22.28,7.43-3.01,10.29,12.44,12.44,16.95,3.64ZM763.81,561.61c4.74-3.14,7.61-7.24,7.61-11.76,0-9.91-13.93-17.96-31.11-17.96s-31.1,8.04-31.1,17.96c0,4.52,2.87,8.62,7.61,11.76,5.69,3.8,14.11,6.19,23.49,6.19s17.81-2.4,23.51-6.19Z" style="fill:#fff;"></path>
    <polygon points="788.96 593.86 788.96 607.18 766.68 614.61 766.68 591.09 788.96 583.66 788.96 593.86" style="fill:#e1e8ed;"></polygon>
    <path d="M771.41,549.85c0,4.52-2.87,8.62-7.61,11.76-5.71-3.79-14.11-6.19-23.51-6.19s-17.8,2.4-23.49,6.19c-4.74-3.14-7.61-7.24-7.61-11.76,0-9.91,13.93-17.96,31.1-17.96s31.11,8.04,31.11,17.96Z" style="fill:#023452;"></path>
    <polygon points="766.68 591.09 766.68 614.61 752.73 607.95 727.86 607.95 713.92 614.61 713.92 591.09 727.86 584.42 752.73 584.42 766.68 591.09" style="fill:#355d75;"></polygon>
    <polygon points="713.92 591.09 713.92 614.61 691.64 607.18 691.64 583.66 713.92 591.09" style="fill:#e1e8ed;"></polygon>
    <polygon points="694.65 573.35 691.64 583.66 691.64 593.86 682.21 584.44 665.26 580.8 665.26 557.28 682.21 560.92 694.65 573.35" style="fill:#355d75;"></polygon>
    <line x1="665.26" y1="557.28" x2="665.26" y2="580.8" style="fill:none; stroke:#373a3a; stroke-linecap:round; stroke-linejoin:round; stroke-width:3px;"></line>
    <polyline points="815.34 580.8 798.38 584.44 788.96 593.86" style="fill:none; stroke:#373a3a; stroke-linecap:round; stroke-linejoin:round; stroke-width:3px;"></polyline>
    <path d="M763.81,561.61c-5.71-3.79-14.11-6.19-23.51-6.19s-17.8,2.4-23.49,6.19" style="fill:none; stroke:#373a3a; stroke-linecap:round; stroke-linejoin:round; stroke-width:3px;"></path>
    <polygon points="691.64 583.66 694.65 573.35 682.21 560.92 665.26 557.28 665.26 542.41 682.21 538.78 694.67 526.34 691.64 516.05 713.94 508.62 727.86 515.27 752.73 515.27 766.68 508.62 788.96 516.05 785.95 526.34 798.38 538.78 815.34 542.41 815.34 557.28 798.38 560.92 785.95 573.35 788.96 583.66 766.68 591.09 752.73 584.42 727.86 584.42 713.92 591.09 691.64 583.66" style="fill:none; stroke:#373a3a; stroke-linecap:round; stroke-linejoin:round; stroke-width:3px;"></polygon>
    <path d="M763.81,561.61c4.73-3.14,7.61-7.24,7.61-11.76,0-9.91-13.93-17.96-31.11-17.96s-31.1,8.04-31.1,17.96c0,4.52,2.87,8.62,7.61,11.76,5.7,3.79,14.11,6.19,23.49,6.19s17.81-2.41,23.51-6.19Z" style="fill:none; stroke:#373a3a; stroke-linecap:round; stroke-linejoin:round; stroke-width:3px;"></path>
    <polyline points="691.64 583.66 691.64 607.18 713.92 614.61 727.86 607.95 752.73 607.95 766.68 614.61 788.96 607.18 788.96 583.66" style="fill:none; stroke:#373a3a; stroke-linecap:round; stroke-linejoin:round; stroke-width:3px;"></polyline>
    <line x1="713.92" y1="614.61" x2="713.92" y2="591.09" style="fill:none; stroke:#373a3a; stroke-linecap:round; stroke-linejoin:round; stroke-width:3px;"></line>
    <line x1="766.68" y1="614.61" x2="766.68" y2="591.09" style="fill:none; stroke:#373a3a; stroke-linecap:round; stroke-linejoin:round; stroke-width:3px;"></line>
    <polyline points="665.26 580.8 682.21 584.44 691.64 593.86" style="fill:none; stroke:#373a3a; stroke-linecap:round; stroke-linejoin:round; stroke-width:3px;"></polyline>
    <line x1="815.34" y1="580.8" x2="815.34" y2="557.28" style="fill:none; stroke:#373a3a; stroke-linecap:round; stroke-linejoin:round; stroke-width:3px;"></line>
    <path d="M844.43,734.5v120.75l-35.14,20.27v-120.73l16.76-9.68h.01l18.36-10.6Z" style="fill:#fff;"></path>
    <path d="M844.43,734.5l-18.36,10.6h-.01c-22.21-9.46-38.2-19.43-56.57-35.18-2.51,2.26-5.31,4.18-8.27,5.84v-29.31l83.21,48.05Z" style="fill:#e1e8ed;"></path>
    <path d="M826.06,745.11l-16.76,9.68h-.01l-59.03-34.07c3.77-1.38,7.49-2.99,10.97-4.95,2.96-1.66,5.76-3.58,8.27-5.84,18.37,15.74,34.35,25.72,56.57,35.18Z" style="fill:#fff;"></path>
    <rect x="809.28" y="754.79" width=".01" height="120.75" style="fill:#fff;"></rect>
    <path d="M750.26,720.71l59.03,34.07h0s-19.5,11.27-19.5,11.27h0s-58.45-35.01-58.45-35.01c-1.68,1.41-3.42,2.57-5.25,3.51v-27.8l24.17,13.96h.01Z" style="fill:#ccd6dc;"></path>
    <path d="M809.28,875.54l-35.14,20.29v-120.75l35.14-20.27v120.73Z" style="fill:#dae0e5;"></path>
    <path d="M789.78,766.05h0s-15.63,9.03-15.63,9.03h0s-63.05-36.39-63.05-36.39c5.31-.63,10.38-1.72,14.98-4.11h0c1.83-.95,3.58-2.11,5.25-3.52l58.45,35Z" style="fill:#fff;"></path>
    <path d="M774.15,775.09v120.73l-35.15,20.3v-120.75l35.15-20.29Z" style="fill:#fff;"></path>
    <path d="M774.15,775.09l-10.42,6.01-66.57-39.82c-1.66,4.02-3.77,7.91-6.23,11.57v-25.8l83.22,48.05Z" style="fill:#e1e8ed;"></path>
    <path d="M763.72,781.09l-24.73,14.28-56.22-32.47c3-3.1,5.74-6.47,8.14-10.06,2.46-3.66,4.57-7.54,6.23-11.57l66.57,39.82Z" style="fill:#fff;"></path>
    <polygon points="739 795.37 739 916.12 655.79 868.08 655.79 747.33 739 795.37" style="fill:#fff;"></polygon>
    <polygon points="665.86 873.89 621.17 899.69 593.69 883.82 596.49 868.85 642.18 868.85 642.51 855.87 655.79 855.28 655.79 868.08 665.86 873.89" style="fill:#f47d20;"></polygon>
    <path d="M655.79,842.84v12.43l-13.27.59-.34,12.99h-45.68l-2.81,14.97-27.75-16.01,66.54-38.42,23.3,13.45ZM627.97,855.67c3.19-1.84,3.17-4.81-.01-6.65-3.16-1.83-8.31-1.83-11.48,0-3.2,1.84-3.19,4.82-.01,6.65,3.17,1.83,8.33,1.83,11.51,0Z" style="fill:#fff;"></path>
    <path d="M627.96,849.02c3.19,1.84,3.2,4.81.01,6.65-3.19,1.83-8.34,1.83-11.51,0-3.17-1.83-3.19-4.81.01-6.65,3.17-1.83,8.33-1.83,11.48,0Z" style="fill:#fff;"></path>
    <line x1="809.28" y1="754.8" x2="809.28" y2="875.54" style="fill:none; stroke:#373a3a; stroke-linecap:round; stroke-linejoin:round; stroke-width:3px;"></line>
    <line x1="826.06" y1="745.11" x2="809.3" y2="754.79" style="fill:none; stroke:#373a3a; stroke-linecap:round; stroke-linejoin:round; stroke-width:3px;"></line>
    <polyline points="809.3 875.52 844.43 855.25 844.43 734.5 826.07 745.11" style="fill:none; stroke:#373a3a; stroke-linecap:round; stroke-linejoin:round; stroke-width:3px;"></polyline>
    <polyline points="844.43 734.5 761.22 686.46 761.22 715.77" style="fill:none; stroke:#373a3a; stroke-linecap:round; stroke-linejoin:round; stroke-width:3px;"></polyline>
    <polyline points="809.28 754.79 809.28 754.8 774.15 775.07 774.15 775.09" style="fill:none; stroke:#373a3a; stroke-linecap:round; stroke-linejoin:round; stroke-width:3px;"></polyline>
    <polyline points="774.15 895.82 809.28 875.54 809.3 875.54 809.3 754.79" style="fill:none; stroke:#373a3a; stroke-linecap:round; stroke-linejoin:round; stroke-width:3px;"></polyline>
    <polyline points="750.24 720.71 726.07 706.76 726.07 734.56" style="fill:none; stroke:#373a3a; stroke-linecap:round; stroke-linejoin:round; stroke-width:3px;"></polyline>
    <polyline points="809.3 754.79 809.28 754.79 750.26 720.71" style="fill:none; stroke:#373a3a; stroke-linecap:round; stroke-linejoin:round; stroke-width:3px;"></polyline>
    <polygon points="739 916.12 774.15 895.82 774.15 775.09 739 795.37 739 916.12" style="fill:none; stroke:#373a3a; stroke-linecap:round; stroke-linejoin:round; stroke-width:3px;"></polygon>
    <polyline points="739 795.37 655.79 747.33 655.79 868.08 739 916.12" style="fill:none; stroke:#373a3a; stroke-linecap:round; stroke-linejoin:round; stroke-width:3px;"></polyline>
    <polyline points="774.15 775.09 690.92 727.04 690.92 752.85" style="fill:none; stroke:#373a3a; stroke-linecap:round; stroke-linejoin:round; stroke-width:3px;"></polyline>
    <path d="M682.78,762.9c3-3.1,5.74-6.47,8.14-10.06,2.46-3.66,4.57-7.54,6.23-11.57l66.57,39.82" style="fill:none; stroke:#373a3a; stroke-linecap:round; stroke-linejoin:round; stroke-width:3px;"></path>
    <path d="M711.1,738.68c5.31-.63,10.38-1.72,14.98-4.11h0c1.83-.95,3.58-2.11,5.25-3.52l58.45,35" style="fill:none; stroke:#373a3a; stroke-linecap:round; stroke-linejoin:round; stroke-width:3px;"></path>
    <path d="M750.24,720.71h.01c3.77-1.38,7.49-2.99,10.97-4.95,2.96-1.66,5.76-3.58,8.27-5.84,18.37,15.74,34.35,25.72,56.57,35.18h.01" style="fill:none; stroke:#373a3a; stroke-linecap:round; stroke-linejoin:round; stroke-width:3px;"></path>
    <polyline points="665.86 873.89 621.17 899.69 565.94 867.81 632.48 829.39 655.79 842.84" style="fill:none; stroke:#373a3a; stroke-linecap:round; stroke-linejoin:round; stroke-width:3px;"></polyline>
    <polyline points="593.69 883.82 596.49 868.85 642.18 868.85 642.51 855.87 655.79 855.28" style="fill:none; stroke:#373a3a; stroke-linecap:round; stroke-linejoin:round; stroke-width:3px;"></polyline>
    <path d="M627.96,849.02c-3.16-1.83-8.31-1.83-11.48,0-3.2,1.84-3.19,4.82-.01,6.65,3.17,1.83,8.33,1.83,11.51,0,3.19-1.84,3.17-4.81-.01-6.65Z" style="fill:none; stroke:#373a3a; stroke-linecap:round; stroke-linejoin:round; stroke-width:3px;"></path>
    <g id="e">
      <polygon points="347.07 860.94 347.07 890.89 325.33 903.44 325.33 873.48 347.07 860.94" style="fill:#023452;"></polygon>
      <polygon points="264.05 777.66 347.07 860.94 325.33 873.48 242.31 790.2 264.05 777.66" style="fill:#e1e8ed;"></polygon>
      <polygon points="325.33 873.48 325.33 903.44 242.31 890.94 242.31 862.53 296.03 871.56 242.31 818.58 242.31 790.2 325.33 873.48" style="fill:#fff;"></polygon>
      <polygon points="296.03 871.56 242.31 862.53 264.05 849.99 276.23 852.04 296.03 871.56" style="fill:#023452;"></polygon>
      <polygon points="262.19 731.26 206.61 882.37 184.88 894.91 240.45 743.8 262.19 731.26" style="fill:#023452;"></polygon>
      <polygon points="262.19 731.26 240.45 743.8 211.98 727.35 233.72 714.81 262.19 731.26" style="fill:#e1e8ed;"></polygon>
      <polygon points="240.45 743.8 184.88 894.91 156.41 878.48 211.98 727.35 240.45 743.8" style="fill:#fff;"></polygon>
      <polygon points="174.59 798.33 174.59 826.71 152.86 839.25 152.86 810.87 174.59 798.33" style="fill:#023452;"></polygon>
      <polygon points="174.59 738.55 174.59 754.37 152.86 766.91 152.86 738.51 174.59 725.97 174.59 738.55" style="fill:#023452;"></polygon>
      <polygon points="174.59 725.97 152.86 738.51 69.84 725.99 91.58 713.45 174.59 725.97" style="fill:#e1e8ed;"></polygon>
      <polygon points="174.59 798.33 152.86 810.87 99.14 757.88 140.67 764.88 174.59 798.33" style="fill:#023452;"></polygon>
      <polygon points="152.86 810.87 152.86 839.25 69.84 755.94 69.84 725.99 152.86 738.51 152.86 766.91 99.14 757.88 152.86 810.87" style="fill:#fff;"></polygon>
      <polygon points="152.86 738.51 152.86 766.91 99.14 757.88 152.86 810.87 152.86 839.25 69.84 755.94 69.84 725.99 152.86 738.51" style="fill:none; stroke:#373a3a; stroke-linecap:round; stroke-linejoin:round; stroke-width:3px;"></polygon>
      <polygon points="211.98 727.35 240.45 743.8 184.88 894.91 156.41 878.48 211.98 727.35" style="fill:none; stroke:#373a3a; stroke-linecap:round; stroke-linejoin:round; stroke-width:3px;"></polygon>
      <polygon points="325.33 873.48 325.33 903.44 242.31 890.94 242.31 862.53 296.03 871.56 242.31 818.58 242.31 790.2 325.33 873.48" style="fill:none; stroke:#373a3a; stroke-linecap:round; stroke-linejoin:round; stroke-width:3px;"></polygon>
      <line x1="325.33" y1="873.48" x2="347.07" y2="860.94" style="fill:none; stroke:#373a3a; stroke-linecap:round; stroke-linejoin:round; stroke-width:3px;"></line>
      <polyline points="325.33 903.44 347.07 890.89 347.07 860.94 264.05 777.66 242.31 790.2" style="fill:none; stroke:#373a3a; stroke-linecap:round; stroke-linejoin:round; stroke-width:3px;"></polyline>
      <polyline points="242.31 862.53 264.05 849.99 276.23 852.04" style="fill:none; stroke:#373a3a; stroke-linecap:round; stroke-linejoin:round; stroke-width:3px;"></polyline>
      <line x1="240.45" y1="743.8" x2="262.19" y2="731.26" style="fill:none; stroke:#373a3a; stroke-linecap:round; stroke-linejoin:round; stroke-width:3px;"></line>
      <polyline points="184.88 894.91 206.61 882.37 262.19 731.26 233.72 714.81 211.98 727.35" style="fill:none; stroke:#373a3a; stroke-linecap:round; stroke-linejoin:round; stroke-width:3px;"></polyline>
      <polyline points="140.67 764.88 174.59 798.33 174.59 826.71 152.86 839.25" style="fill:none; stroke:#373a3a; stroke-linecap:round; stroke-linejoin:round; stroke-width:3px;"></polyline>
      <line x1="152.86" y1="738.51" x2="174.59" y2="725.97" style="fill:none; stroke:#373a3a; stroke-linecap:round; stroke-linejoin:round; stroke-width:3px;"></line>
      <polyline points="152.86 766.91 174.59 754.37 174.59 725.97 91.58 713.45 69.84 725.99" style="fill:none; stroke:#373a3a; stroke-linecap:round; stroke-linejoin:round; stroke-width:3px;"></polyline>
      <line x1="152.86" y1="810.87" x2="174.59" y2="798.33" style="fill:none; stroke:#373a3a; stroke-linecap:round; stroke-linejoin:round; stroke-width:3px;"></line>
    </g>
    <path d="M482.05,884.09c.88,3.76-.8,8.79-3.76,11.26-1.38,1.14-2.8,1.53-4,1.24l-.55-.19c-1.12-.5-2.01-1.66-2.42-3.39-.88-3.76.79-8.79,3.76-11.26,1.38-1.15,2.8-1.54,4-1.24,1.39.34,2.5,1.57,2.97,3.57Z" style="fill:#fff;"></path>
    <path d="M479.08,880.52c-1.2-.31-2.62.09-4,1.24-2.97,2.46-4.64,7.5-3.76,11.26.41,1.73,1.3,2.89,2.42,3.39l-50.89-17.83c-1.39-.33-2.5-1.57-2.97-3.57-.88-3.75.8-8.79,3.76-11.26,1.38-1.14,2.8-1.53,4-1.23l51.44,18.01Z" style="fill:#fff;"></path>
    <path d="M473.73,896.4l.51.17c-.17-.04-.35-.09-.51-.17Z" style="fill:#fff;"></path>
    <path d="M474.24,896.58c-.17-.04-.35-.1-.51-.17-1.11-.52-2.01-1.66-2.42-3.39-.88-3.76.79-8.79,3.76-11.26,1.38-1.15,2.8-1.54,4-1.24,1.39.34,2.5,1.57,2.97,3.57.88,3.76-.8,8.79-3.76,11.26-1.38,1.14-2.8,1.53-4,1.24h-.04Z" style="fill:none; stroke:#373a3a; stroke-linecap:round; stroke-linejoin:round; stroke-width:3px;"></path>
    <path d="M479.08,880.52l-51.44-18.01c-1.2-.29-2.62.09-4,1.23-2.96,2.46-4.64,7.51-3.76,11.26.47,2.01,1.58,3.24,2.97,3.57l51.44,18.02" style="fill:none; stroke:#373a3a; stroke-linecap:round; stroke-linejoin:round; stroke-width:3px;"></path>
    <path d="M182.15,442.81v131.79l-109.87,63.43v-131.8l109.87-63.41ZM159.76,530.76c.47-2.9.72-5.78.72-8.57,0-3.42-.38-6.5-1.09-9.26-3.8-14.77-17.15-19.61-33.04-10.42-2.28,1.32-4.52,2.87-6.68,4.61-6.72,5.42-12.72,12.71-17.4,20.77-6.19,10.71-10.03,22.79-10.03,33.7,0,21.76,15.27,30.58,34.11,19.7,16.44-9.48,30.14-30.8,33.4-50.53Z" style="fill:#fff;"></path>
    <path d="M160.49,522.19c0,2.79-.25,5.67-.72,8.57-3.26,19.73-16.96,41.05-33.4,50.53-18.83,10.88-34.11,2.06-34.11-19.7,0-10.91,3.84-22.99,10.03-33.7l12.79,7.43c-2.9,5.02-4.71,10.69-4.71,15.81,0,10.2,7.16,14.35,16,9.24,7.72-4.46,14.14-14.44,15.67-23.7.24-1.37.35-2.72.35-4.03,0-1.61-.17-3.06-.5-4.33l17.53-15.39c.71,2.76,1.09,5.84,1.09,9.26Z" style="fill:#f47d20;"></path>
    <path d="M159.4,512.93l-17.53,15.39c-1.78-6.94-8.07-9.25-15.51-4.91-1.07.62-2.11,1.35-3.13,2.17l-3.54-18.46c2.16-1.75,4.39-3.29,6.68-4.61,15.89-9.18,29.24-4.35,33.04,10.42Z" style="fill:#023452;"></path>
    <path d="M142.38,532.65c0,1.31-.11,2.66-.35,4.03-1.53,9.26-7.95,19.24-15.67,23.7-8.83,5.1-16,.96-16-9.24,0-5.12,1.81-10.79,4.71-15.81,2.19-3.78,5-7.21,8.16-9.75,1.02-.82,2.06-1.55,3.13-2.17,7.44-4.33,13.72-2.03,15.51,4.91.33,1.28.5,2.72.5,4.33Z" style="fill:#fff;"></path>
    <path d="M119.68,507.12l3.54,18.46c-3.15,2.55-5.97,5.97-8.16,9.75l-12.79-7.43c4.68-8.06,10.68-15.35,17.4-20.77Z" style="fill:#fff;"></path>
    <polygon points="182.15 574.6 72.28 638.03 72.28 506.22 182.15 442.81 182.15 574.6" style="fill:none; stroke:#373a3a; stroke-linecap:round; stroke-linejoin:round; stroke-width:3px;"></polygon>
    <path d="M102.28,527.89c-6.2,10.7-10.03,22.79-10.03,33.7,0,21.76,15.27,30.58,34.11,19.7,16.44-9.48,30.14-30.8,33.4-50.53.47-2.9.72-5.78.72-8.57,0-3.42-.38-6.5-1.09-9.26-3.8-14.77-17.15-19.61-33.04-10.42-2.28,1.32-4.52,2.87-6.68,4.61-6.72,5.43-12.73,12.7-17.4,20.77Z" style="fill:none; stroke:#373a3a; stroke-linecap:round; stroke-linejoin:round; stroke-width:3px;"></path>
    <path d="M115.07,535.32c-2.9,5.02-4.71,10.69-4.71,15.81,0,10.2,7.16,14.35,16,9.24,7.72-4.46,14.14-14.44,15.67-23.7.24-1.37.35-2.72.35-4.03,0-1.61-.18-3.05-.5-4.33-1.79-6.94-8.07-9.25-15.51-4.91-1.07.62-2.11,1.35-3.13,2.17-3.16,2.54-5.97,5.97-8.16,9.75Z" style="fill:none; stroke:#373a3a; stroke-linecap:round; stroke-linejoin:round; stroke-width:3px;"></path>
    <line x1="115.07" y1="535.32" x2="102.28" y2="527.89" style="fill:none; stroke:#373a3a; stroke-linecap:round; stroke-linejoin:round; stroke-width:3px;"></line>
    <line x1="119.68" y1="507.12" x2="123.23" y2="525.58" style="fill:none; stroke:#373a3a; stroke-linecap:round; stroke-linejoin:round; stroke-width:3px;"></line>
    <line x1="141.87" y1="528.32" x2="159.4" y2="512.93" style="fill:none; stroke:#373a3a; stroke-linecap:round; stroke-linejoin:round; stroke-width:3px;"></line>
    <g id="f">
      <path d="M340.44,321.05c4.04,15.68-5.16,37.57-18.51,45.39-80.14,46.89-77.42,45.98-81,46.99-2.79.78-5.23.5-7.21-.64,0,0-.02,0-.02-.02-4.87-2.82-6.99-10.87-4.9-21.48,2.99-15.1,13.72-30.28,23.92-32.17,1.16-23.27,13.1-47.92,27.66-56.34,5.99-3.46,11.59-3.73,16.08-1.14.08.05.16.09.23.14,5.37,3.15,9.33,10.08,10.8,19.9,8.04-11.55,18.56-15.49,25.74-11.33,3.27,1.88,5.84,5.44,7.2,10.7Z" style="fill:#fff;"></path>
      <path d="M300.61,291.49l32.64,18.85c-7.18-4.16-17.7-.22-25.74,11.33-1.47-9.83-5.43-16.75-10.8-19.9-.08-.05-13.42-7.76-13.42-7.76,6.1-4.43,12.47-5.3,17.32-2.52Z" style="fill:#dae0e5;"></path>
      <path d="M283.29,294.01l13.19,7.62c-4.54-2.5-10.09-2.32-16.08,1.14-14.57,8.42-26.5,33.08-27.66,56.34l-32.64-18.84c1.16-23.27,13.1-47.94,27.66-56.34,6.1-3.52,11.75-3.66,16.32-1.02l19.21,11.09Z" style="fill:#dae0e5;"></path>
      <path d="M220.09,340.28l32.64,18.84c-10.2,1.89-20.93,17.07-23.92,32.17-2.1,10.61.03,18.67,4.9,21.48l-32.62-18.82c-4.88-2.82-7.01-10.91-4.91-21.51,2.99-15.08,13.72-30.26,23.92-32.15Z" style="fill:#dae0e5;"></path>
      <path d="M233.7,412.77c-4.87-2.82-6.99-10.87-4.9-21.48,2.99-15.1,13.72-30.28,23.92-32.17,1.16-23.27,13.1-47.92,27.66-56.34,5.99-3.46,11.55-3.65,16.08-1.14" style="fill:none; stroke:#373a3a; stroke-linecap:round; stroke-linejoin:round; stroke-width:3px;"></path>
      <path d="M296.71,301.77c5.4,3.1,9.33,10.08,10.8,19.9,8.04-11.55,18.55-15.48,25.74-11.33,3.27,1.88,5.84,5.44,7.2,10.7,4.04,15.68-5.16,37.57-18.51,45.39-80.14,46.89-77.42,45.98-81,46.99-2.79.78-5.23.5-7.21-.64" style="fill:none; stroke:#373a3a; stroke-linecap:round; stroke-linejoin:round; stroke-width:3px;"></path>
      <path d="M283.22,294.06s.05-.03.06-.05c6.1-4.43,12.47-5.3,17.32-2.52l32.64,18.85" style="fill:none; stroke:#373a3a; stroke-linecap:round; stroke-linejoin:round; stroke-width:3px;"></path>
      <path d="M296.71,301.77c-.08-.05-32.64-18.85-32.64-18.85-4.57-2.64-10.22-2.5-16.32,1.02-14.57,8.4-26.51,33.08-27.66,56.34-10.2,1.89-20.93,17.07-23.92,32.15-2.1,10.61.03,18.7,4.91,21.51l32.62,18.82s.02.02.02.02" style="fill:none; stroke:#373a3a; stroke-linecap:round; stroke-linejoin:round; stroke-width:3px;"></path>
      <line x1="252.73" y1="359.12" x2="220.09" y2="340.28" style="fill:none; stroke:#373a3a; stroke-linecap:round; stroke-linejoin:round; stroke-width:3px;"></line>
    </g>
    <polygon points="82.62 383.23 82.62 404.99 63.79 415.87 63.79 394.11 82.62 383.23" style="fill:#355d75;"></polygon>
    <polygon points="82.62 383.23 63.79 394.11 44.95 383.23 63.79 372.35 82.62 383.23" style="fill:#fff;"></polygon>
    <polygon points="63.79 394.11 63.79 415.87 44.95 404.99 44.95 383.23 63.79 394.11" style="fill:#fff;"></polygon>
    <polygon points="44.95 383.23 63.79 372.35 82.62 383.23 63.79 394.11 44.95 383.23" style="fill:none; stroke:#373a3a; stroke-linecap:round; stroke-linejoin:round; stroke-width:3px;"></polygon>
    <line x1="63.79" y1="394.11" x2="63.79" y2="415.87" style="fill:none; stroke:#373a3a; stroke-linecap:round; stroke-linejoin:round; stroke-width:3px;"></line>
    <polyline points="44.95 383.23 44.95 404.99 63.79 415.87 82.62 404.99 82.62 383.23" style="fill:none; stroke:#373a3a; stroke-linecap:round; stroke-linejoin:round; stroke-width:3px;"></polyline>
    <path d="M739.04,295.52c14.38,11.54,20.78,43.89,16.28,55.7l-41.69,8.84c4.52-11.81-1.88-44.18-16.26-55.7l41.68-8.84Z" style="fill:#fff;"></path>
    <path d="M755.32,351.22c4.51-11.81-1.89-44.16-16.28-55.7l-41.68,8.84c14.38,11.52,20.78,43.89,16.26,55.7l41.69-8.84Z" style="fill:none; stroke:#373a3a; stroke-linecap:round; stroke-linejoin:round; stroke-width:3px;"></path>
    <line x1="718.33" y1="314.06" x2="736.85" y2="310.14" style="fill:none; stroke:#373a3a; stroke-linecap:round; stroke-linejoin:round; stroke-width:3px;"></line>
    <line x1="723.17" y1="326.99" x2="742.34" y2="322.93" style="fill:none; stroke:#373a3a; stroke-linecap:round; stroke-linejoin:round; stroke-width:3px;"></line>
    <line x1="725.92" y1="340.36" x2="745.11" y2="336.29" style="fill:none; stroke:#373a3a; stroke-linecap:round; stroke-linejoin:round; stroke-width:3px;"></line>
    <polyline id="g" points="753.64 212.22 752.08 222.9 770.58 222 769.02 232.68 787.53 231.79 785.98 242.47" style="fill:none; stroke:#373a3a; stroke-linecap:round; stroke-linejoin:round; stroke-width:3px;"></polyline>
    <polyline id="h" points="146.87 272.66 148.43 283.34 129.92 282.44 131.48 293.12 112.98 292.22 114.53 302.91" style="fill:none; stroke:#373a3a; stroke-linecap:round; stroke-linejoin:round; stroke-width:3px;"></polyline>
  </g>
</svg>
